<?xml version="1.0" encoding="utf-8"?>
<!-- Generator: Adobe Illustrator 22.0.1, SVG Export Plug-In . SVG Version: 6.00 Build 0)  -->
<svg version="1.1" id="alarm-bell" xmlns="http://www.w3.org/2000/svg" xmlns:xlink="http://www.w3.org/1999/xlink" x="0px" y="0px"
	 viewBox="0 0 16 16" style="enable-background:new 0 0 16 16;" xml:space="preserve">
<style type="text/css">
	.st0{fill:#057DB7;}
</style>
<g id="Art_593_">
	<g>
		<path class="st0" d="M14.3,13.2V10H1.7v3.3l-1.2,1.4v0.9h8h0.4h6.7v-0.9L14.3,13.2z M8.8,14.3H8.5H2.2L2.4,14l0.3-0.3v-0.5v-2.1
			h10.6v2.1v0.5l0.3,0.3l0.3,0.3H8.8z"/>
		<path class="st0" d="M8.5,3V1.8h1V0.5h-3v1.3h1V3c-2.7,0.1-5,2.4-5.7,5.5h12.6C13.6,5.4,11.3,3,8.5,3z M3.3,7.2
			c0.9-1.8,2.6-3,4.4-3h0.7c1.8,0,3.5,1.2,4.4,3H3.3z"/>
	</g>
</g>
</svg>
