<?xml version="1.0" encoding="utf-8"?>
<!-- Generator: Adobe Illustrator 22.0.1, SVG Export Plug-In . SVG Version: 6.00 Build 0)  -->
<svg version="1.1" id="Layer_1" xmlns="http://www.w3.org/2000/svg" xmlns:xlink="http://www.w3.org/1999/xlink" x="0px" y="0px"
	 viewBox="0 0 16 16" style="enable-background:new 0 0 16 16;" xml:space="preserve">
<style type="text/css">
	.st0{fill:#B2B2B2;}
</style>
<g id="Art_431_">
	<g>
		<path class="st0" d="M8,14.5H2.4V4.9h3.8V1.5h5.5v3.9h1V0.5H5.1L1.4,4v11.5h7.7C8.7,15.2,8.3,14.9,8,14.5z M5.2,1.8v2.1H3L5.2,1.8
			z"/>
		<path class="st0" d="M12.7,6.4h-1h-4v4.7h0c0,1.3,0.7,2.5,1.7,3.4c0.5,0.4,1.1,0.8,1.7,1c0.6-0.2,1.1-0.5,1.6-0.9
			c1.1-0.9,1.8-2.1,1.9-3.5h0V6.4H12.7z M13.6,10.9l0,0.2c0,0.8-0.3,1.5-0.9,2.2c-0.3,0.3-0.6,0.6-1,0.9c-0.2,0.1-0.4,0.2-0.6,0.3
			c-1.2-0.5-2-1.5-2.3-2.6l2.9-2.6l0.1-0.1l-0.1-0.1l-0.6-0.7l-2.4,2.2V7.4h3h1h0.9V9l-0.9,0.8l-1,0.9l-1.3,1.2l0.7,0.7l0.6-0.6
			l1-0.9l0.9-0.8L13.6,10.9L13.6,10.9z"/>
	</g>
</g>
</svg>
