<?xml version="1.0" encoding="utf-8"?>
<!-- Generator: Adobe Illustrator 22.0.1, SVG Export Plug-In . SVG Version: 6.00 Build 0)  -->
<svg version="1.1" id="Document" xmlns="http://www.w3.org/2000/svg" xmlns:xlink="http://www.w3.org/1999/xlink" x="0px" y="0px"
	 viewBox="0 0 16 16" style="enable-background:new 0 0 16 16;" xml:space="preserve">
<style type="text/css">
	.st0{fill:#057DB7;}
</style>
<g id="Art_433_">
	<g>
		<path class="st0" d="M6.7,0.5L3,0.5v2.2H1.7v1H3v1H1.7v1H3v4.6H1.7v1H3v1H1.7v1H3v2.2h11.3v-15H6.7z M13.3,14.5H4v-1.2h0.9v-1H4
			v-1h0.9v-1H4V5.7h0.9v-1H4v-1h0.9v-1H4V1.5l2.7,0h6.6V14.5z"/>
		<path class="st0" d="M6.2,7.2h4.9V4H6.2V7.2z M7.2,5h2.9v1.3H7.2V5z"/>
		<rect x="6.2" y="8.5" class="st0" width="4.9" height="1"/>
	</g>
</g>
</svg>
