<?xml version="1.0" encoding="utf-8"?>
<!-- Generator: Adobe Illustrator 22.0.1, SVG Export Plug-In . SVG Version: 6.00 Build 0)  -->
<svg version="1.1" id="Layer_6" xmlns="http://www.w3.org/2000/svg" xmlns:xlink="http://www.w3.org/1999/xlink" x="0px" y="0px"
	 viewBox="0 0 16 16" style="enable-background:new 0 0 16 16;" xml:space="preserve">
<style type="text/css">
	.st0{fill:#057DB7;}
</style>
<g id="Titles_368_">
	<g>
		<path class="st0" d="M7.9,13.9H1.5V5.6h11v0.7c0.4,0.2,0.7,0.5,1,0.9V0.5h-13v14.4h8.5C8.6,14.7,8.2,14.3,7.9,13.9z M1.5,1.6h11v3
			h-11V1.6z"/>
	</g>
</g>
<path class="st0" d="M13.5,12.8L13,12.3c0.2-0.3,0.4-0.7,0.5-1.1c0.1-0.3,0.1-0.5,0.1-0.8c0-0.3,0-0.6-0.1-0.8
	c-0.2-0.7-0.5-1.2-1-1.6C11.9,7.3,11.2,7,10.3,7C8.5,7,7,8.5,7,10.3c0,1,0.5,1.9,1.2,2.5c0.6,0.5,1.3,0.8,2.1,0.8
	c0.7,0,1.4-0.2,2-0.7l0.9,0.9l1.6,1.6l0.7-0.7L13.5,12.8z M12.5,11c-0.3,0.9-1.2,1.6-2.2,1.6c-1.3,0-2.3-1-2.3-2.3S9,8,10.3,8
	c1,0,1.9,0.7,2.2,1.6c0.1,0.2,0.1,0.4,0.1,0.7S12.6,10.8,12.5,11z"/>
</svg>
