<?xml version="1.0" encoding="utf-8"?>
<!-- Generator: Adobe Illustrator 22.0.1, SVG Export Plug-In . SVG Version: 6.00 Build 0)  -->
<svg version="1.1" id="User-circle" xmlns="http://www.w3.org/2000/svg" xmlns:xlink="http://www.w3.org/1999/xlink" x="0px"
	 y="0px" viewBox="0 0 16 16" style="enable-background:new 0 0 16 16;" xml:space="preserve">
<style type="text/css">
	.st0{fill:#007DB8;}
</style>
<g id="Art_542_">
	<g>
		<path class="st0" d="M15.3,6.4l-0.8,0h-0.2c0.1,0.5,0.2,1,0.2,1.6c0,1.6-0.6,3-1.5,4.1c-0.4-0.9-1-1.9-2.1-2.5l-0.3-0.2l-0.3,0.2
			C9,10.7,7,10.7,5.6,9.6L5.3,9.4L5,9.6c-1,0.7-1.7,1.7-2.1,2.5C2.1,11,1.5,9.6,1.5,8c0-3.6,2.9-6.5,6.5-6.5c0.6,0,1.1,0.1,1.6,0.2
			V1.5l0-0.8C9.1,0.6,8.5,0.5,8,0.5C3.9,0.5,0.5,3.9,0.5,8s3.4,7.5,7.5,7.5s7.5-3.4,7.5-7.5C15.5,7.5,15.4,6.9,15.3,6.4z M3.7,12.9
			c0.3-0.8,0.7-1.6,1.5-2.3c1.6,1.1,3.8,1.1,5.4,0c0.8,0.6,1.3,1.5,1.5,2.3c-1.1,1-2.6,1.6-4.3,1.6C6.4,14.5,4.9,13.9,3.7,12.9z"/>
		<polygon class="st0" points="12.5,5.4 13.5,5.4 13.5,3.5 15.5,3.5 15.5,2.5 13.5,2.5 13.5,0.5 12.5,0.5 12.5,2.5 10.6,2.5 
			10.6,3.5 12.5,3.5 		"/>
		<path class="st0" d="M4.8,6.8c0,1.7,1.4,3.2,3.2,3.2c1.7,0,3.2-1.4,3.2-3.2C11.2,5,9.7,3.6,8,3.6C6.3,3.6,4.8,5,4.8,6.8z
			 M10.2,6.8c0,1.2-1,2.2-2.2,2.2c-1.2,0-2.2-1-2.2-2.2c0-1.2,1-2.2,2.2-2.2C9.2,4.6,10.2,5.6,10.2,6.8z"/>
	</g>
</g>
</svg>
